<mxfile host="app.diagrams.net" modified="2021-09-08T20:52:46.058Z" agent="5.0 (Windows)" etag="j9o5hL_AGCiU57bChRvZ" version="15.1.2" type="github">
  <diagram id="uGqr7aOQVbbfntvSSBjr" name="Page-1">
    <mxGraphModel dx="1038" dy="612" grid="1" gridSize="10" guides="1" tooltips="1" connect="1" arrows="1" fold="1" page="1" pageScale="1" pageWidth="850" pageHeight="1100" math="0" shadow="0">
      <root>
        <mxCell id="0" />
        <mxCell id="1" parent="0" />
        <mxCell id="TG4V55NeWWXEX1vSNr2F-1" value="Mission Point" style="shape=table;startSize=30;container=1;collapsible=1;childLayout=tableLayout;fixedRows=1;rowLines=0;fontStyle=1;align=center;resizeLast=1;" vertex="1" parent="1">
          <mxGeometry x="650" y="60" width="250" height="130" as="geometry" />
        </mxCell>
        <mxCell id="TG4V55NeWWXEX1vSNr2F-2" value="" style="shape=partialRectangle;collapsible=0;dropTarget=0;pointerEvents=0;fillColor=none;points=[[0,0.5],[1,0.5]];portConstraint=eastwest;top=0;left=0;right=0;bottom=1;" vertex="1" parent="TG4V55NeWWXEX1vSNr2F-1">
          <mxGeometry y="30" width="250" height="30" as="geometry" />
        </mxCell>
        <mxCell id="TG4V55NeWWXEX1vSNr2F-3" value="PK" style="shape=partialRectangle;overflow=hidden;connectable=0;fillColor=none;top=0;left=0;bottom=0;right=0;fontStyle=1;" vertex="1" parent="TG4V55NeWWXEX1vSNr2F-2">
          <mxGeometry width="30" height="30" as="geometry" />
        </mxCell>
        <mxCell id="TG4V55NeWWXEX1vSNr2F-4" value="order_id int NOT NULL " style="shape=partialRectangle;overflow=hidden;connectable=0;fillColor=none;top=0;left=0;bottom=0;right=0;align=left;spacingLeft=6;fontStyle=5;" vertex="1" parent="TG4V55NeWWXEX1vSNr2F-2">
          <mxGeometry x="30" width="220" height="30" as="geometry" />
        </mxCell>
        <mxCell id="TG4V55NeWWXEX1vSNr2F-5" value="" style="shape=partialRectangle;collapsible=0;dropTarget=0;pointerEvents=0;fillColor=none;points=[[0,0.5],[1,0.5]];portConstraint=eastwest;top=0;left=0;right=0;bottom=0;" vertex="1" parent="TG4V55NeWWXEX1vSNr2F-1">
          <mxGeometry y="60" width="250" height="30" as="geometry" />
        </mxCell>
        <mxCell id="TG4V55NeWWXEX1vSNr2F-6" value="FK1" style="shape=partialRectangle;overflow=hidden;connectable=0;fillColor=none;top=0;left=0;bottom=0;right=0;" vertex="1" parent="TG4V55NeWWXEX1vSNr2F-5">
          <mxGeometry width="30" height="30" as="geometry" />
        </mxCell>
        <mxCell id="TG4V55NeWWXEX1vSNr2F-7" value="customer_id int NOT NULL" style="shape=partialRectangle;overflow=hidden;connectable=0;fillColor=none;top=0;left=0;bottom=0;right=0;align=left;spacingLeft=6;" vertex="1" parent="TG4V55NeWWXEX1vSNr2F-5">
          <mxGeometry x="30" width="220" height="30" as="geometry" />
        </mxCell>
        <mxCell id="TG4V55NeWWXEX1vSNr2F-8" value="" style="shape=partialRectangle;collapsible=0;dropTarget=0;pointerEvents=0;fillColor=none;points=[[0,0.5],[1,0.5]];portConstraint=eastwest;top=0;left=0;right=0;bottom=0;" vertex="1" parent="TG4V55NeWWXEX1vSNr2F-1">
          <mxGeometry y="90" width="250" height="30" as="geometry" />
        </mxCell>
        <mxCell id="TG4V55NeWWXEX1vSNr2F-9" value="" style="shape=partialRectangle;overflow=hidden;connectable=0;fillColor=none;top=0;left=0;bottom=0;right=0;" vertex="1" parent="TG4V55NeWWXEX1vSNr2F-8">
          <mxGeometry width="30" height="30" as="geometry" />
        </mxCell>
        <mxCell id="TG4V55NeWWXEX1vSNr2F-10" value="order_date date NOT NULL" style="shape=partialRectangle;overflow=hidden;connectable=0;fillColor=none;top=0;left=0;bottom=0;right=0;align=left;spacingLeft=6;" vertex="1" parent="TG4V55NeWWXEX1vSNr2F-8">
          <mxGeometry x="30" width="220" height="30" as="geometry" />
        </mxCell>
        <mxCell id="TG4V55NeWWXEX1vSNr2F-11" value="Director" style="shape=table;startSize=30;container=1;collapsible=1;childLayout=tableLayout;fixedRows=1;rowLines=0;fontStyle=1;align=center;resizeLast=1;" vertex="1" parent="1">
          <mxGeometry x="60" y="270" width="250" height="130" as="geometry" />
        </mxCell>
        <mxCell id="TG4V55NeWWXEX1vSNr2F-12" value="" style="shape=partialRectangle;collapsible=0;dropTarget=0;pointerEvents=0;fillColor=none;points=[[0,0.5],[1,0.5]];portConstraint=eastwest;top=0;left=0;right=0;bottom=1;" vertex="1" parent="TG4V55NeWWXEX1vSNr2F-11">
          <mxGeometry y="30" width="250" height="30" as="geometry" />
        </mxCell>
        <mxCell id="TG4V55NeWWXEX1vSNr2F-13" value="PK" style="shape=partialRectangle;overflow=hidden;connectable=0;fillColor=none;top=0;left=0;bottom=0;right=0;fontStyle=1;" vertex="1" parent="TG4V55NeWWXEX1vSNr2F-12">
          <mxGeometry width="30" height="30" as="geometry" />
        </mxCell>
        <mxCell id="TG4V55NeWWXEX1vSNr2F-14" value="shipment_id int NOT NULL " style="shape=partialRectangle;overflow=hidden;connectable=0;fillColor=none;top=0;left=0;bottom=0;right=0;align=left;spacingLeft=6;fontStyle=5;" vertex="1" parent="TG4V55NeWWXEX1vSNr2F-12">
          <mxGeometry x="30" width="220" height="30" as="geometry" />
        </mxCell>
        <mxCell id="TG4V55NeWWXEX1vSNr2F-15" value="" style="shape=partialRectangle;collapsible=0;dropTarget=0;pointerEvents=0;fillColor=none;points=[[0,0.5],[1,0.5]];portConstraint=eastwest;top=0;left=0;right=0;bottom=0;" vertex="1" parent="TG4V55NeWWXEX1vSNr2F-11">
          <mxGeometry y="60" width="250" height="30" as="geometry" />
        </mxCell>
        <mxCell id="TG4V55NeWWXEX1vSNr2F-16" value="FK1" style="shape=partialRectangle;overflow=hidden;connectable=0;fillColor=none;top=0;left=0;bottom=0;right=0;" vertex="1" parent="TG4V55NeWWXEX1vSNr2F-15">
          <mxGeometry width="30" height="30" as="geometry" />
        </mxCell>
        <mxCell id="TG4V55NeWWXEX1vSNr2F-17" value="order_id int NOT NULL" style="shape=partialRectangle;overflow=hidden;connectable=0;fillColor=none;top=0;left=0;bottom=0;right=0;align=left;spacingLeft=6;" vertex="1" parent="TG4V55NeWWXEX1vSNr2F-15">
          <mxGeometry x="30" width="220" height="30" as="geometry" />
        </mxCell>
        <mxCell id="TG4V55NeWWXEX1vSNr2F-18" value="" style="shape=partialRectangle;collapsible=0;dropTarget=0;pointerEvents=0;fillColor=none;points=[[0,0.5],[1,0.5]];portConstraint=eastwest;top=0;left=0;right=0;bottom=0;" vertex="1" parent="TG4V55NeWWXEX1vSNr2F-11">
          <mxGeometry y="90" width="250" height="30" as="geometry" />
        </mxCell>
        <mxCell id="TG4V55NeWWXEX1vSNr2F-19" value="" style="shape=partialRectangle;overflow=hidden;connectable=0;fillColor=none;top=0;left=0;bottom=0;right=0;" vertex="1" parent="TG4V55NeWWXEX1vSNr2F-18">
          <mxGeometry width="30" height="30" as="geometry" />
        </mxCell>
        <mxCell id="TG4V55NeWWXEX1vSNr2F-20" value="shipment_date date NOT NULL" style="shape=partialRectangle;overflow=hidden;connectable=0;fillColor=none;top=0;left=0;bottom=0;right=0;align=left;spacingLeft=6;" vertex="1" parent="TG4V55NeWWXEX1vSNr2F-18">
          <mxGeometry x="30" width="220" height="30" as="geometry" />
        </mxCell>
        <mxCell id="TG4V55NeWWXEX1vSNr2F-21" value="Missionary" style="shape=table;startSize=30;container=1;collapsible=1;childLayout=tableLayout;fixedRows=1;rowLines=0;fontStyle=1;align=center;resizeLast=1;" vertex="1" parent="1">
          <mxGeometry x="60" y="60" width="250" height="100" as="geometry" />
        </mxCell>
        <mxCell id="TG4V55NeWWXEX1vSNr2F-22" value="" style="shape=partialRectangle;collapsible=0;dropTarget=0;pointerEvents=0;fillColor=none;points=[[0,0.5],[1,0.5]];portConstraint=eastwest;top=0;left=0;right=0;bottom=1;" vertex="1" parent="TG4V55NeWWXEX1vSNr2F-21">
          <mxGeometry y="30" width="250" height="30" as="geometry" />
        </mxCell>
        <mxCell id="TG4V55NeWWXEX1vSNr2F-23" value="PK" style="shape=partialRectangle;overflow=hidden;connectable=0;fillColor=none;top=0;left=0;bottom=0;right=0;fontStyle=1;" vertex="1" parent="TG4V55NeWWXEX1vSNr2F-22">
          <mxGeometry width="30" height="30" as="geometry" />
        </mxCell>
        <mxCell id="TG4V55NeWWXEX1vSNr2F-24" value="customer_id int NOT NULL " style="shape=partialRectangle;overflow=hidden;connectable=0;fillColor=none;top=0;left=0;bottom=0;right=0;align=left;spacingLeft=6;fontStyle=5;" vertex="1" parent="TG4V55NeWWXEX1vSNr2F-22">
          <mxGeometry x="30" width="220" height="30" as="geometry" />
        </mxCell>
        <mxCell id="TG4V55NeWWXEX1vSNr2F-25" value="" style="shape=partialRectangle;collapsible=0;dropTarget=0;pointerEvents=0;fillColor=none;points=[[0,0.5],[1,0.5]];portConstraint=eastwest;top=0;left=0;right=0;bottom=0;" vertex="1" parent="TG4V55NeWWXEX1vSNr2F-21">
          <mxGeometry y="60" width="250" height="30" as="geometry" />
        </mxCell>
        <mxCell id="TG4V55NeWWXEX1vSNr2F-26" value="" style="shape=partialRectangle;overflow=hidden;connectable=0;fillColor=none;top=0;left=0;bottom=0;right=0;" vertex="1" parent="TG4V55NeWWXEX1vSNr2F-25">
          <mxGeometry width="30" height="30" as="geometry" />
        </mxCell>
        <mxCell id="TG4V55NeWWXEX1vSNr2F-27" value="customer_name char(50) NOT NULL" style="shape=partialRectangle;overflow=hidden;connectable=0;fillColor=none;top=0;left=0;bottom=0;right=0;align=left;spacingLeft=6;" vertex="1" parent="TG4V55NeWWXEX1vSNr2F-25">
          <mxGeometry x="30" width="220" height="30" as="geometry" />
        </mxCell>
        <mxCell id="TG4V55NeWWXEX1vSNr2F-28" value="Evaluation" style="shape=table;startSize=30;container=1;collapsible=1;childLayout=tableLayout;fixedRows=1;rowLines=0;fontStyle=1;align=center;resizeLast=1;" vertex="1" parent="1">
          <mxGeometry x="425" y="260" width="250" height="130" as="geometry" />
        </mxCell>
        <mxCell id="TG4V55NeWWXEX1vSNr2F-29" value="" style="shape=partialRectangle;collapsible=0;dropTarget=0;pointerEvents=0;fillColor=none;points=[[0,0.5],[1,0.5]];portConstraint=eastwest;top=0;left=0;right=0;bottom=1;" vertex="1" parent="TG4V55NeWWXEX1vSNr2F-28">
          <mxGeometry y="30" width="250" height="30" as="geometry" />
        </mxCell>
        <mxCell id="TG4V55NeWWXEX1vSNr2F-30" value="PK" style="shape=partialRectangle;overflow=hidden;connectable=0;fillColor=none;top=0;left=0;bottom=0;right=0;fontStyle=1;" vertex="1" parent="TG4V55NeWWXEX1vSNr2F-29">
          <mxGeometry width="30" height="30" as="geometry" />
        </mxCell>
        <mxCell id="TG4V55NeWWXEX1vSNr2F-31" value="order_id int NOT NULL " style="shape=partialRectangle;overflow=hidden;connectable=0;fillColor=none;top=0;left=0;bottom=0;right=0;align=left;spacingLeft=6;fontStyle=5;" vertex="1" parent="TG4V55NeWWXEX1vSNr2F-29">
          <mxGeometry x="30" width="220" height="30" as="geometry" />
        </mxCell>
        <mxCell id="TG4V55NeWWXEX1vSNr2F-32" value="" style="shape=partialRectangle;collapsible=0;dropTarget=0;pointerEvents=0;fillColor=none;points=[[0,0.5],[1,0.5]];portConstraint=eastwest;top=0;left=0;right=0;bottom=0;" vertex="1" parent="TG4V55NeWWXEX1vSNr2F-28">
          <mxGeometry y="60" width="250" height="30" as="geometry" />
        </mxCell>
        <mxCell id="TG4V55NeWWXEX1vSNr2F-33" value="FK1" style="shape=partialRectangle;overflow=hidden;connectable=0;fillColor=none;top=0;left=0;bottom=0;right=0;" vertex="1" parent="TG4V55NeWWXEX1vSNr2F-32">
          <mxGeometry width="30" height="30" as="geometry" />
        </mxCell>
        <mxCell id="TG4V55NeWWXEX1vSNr2F-34" value="customer_id int NOT NULL" style="shape=partialRectangle;overflow=hidden;connectable=0;fillColor=none;top=0;left=0;bottom=0;right=0;align=left;spacingLeft=6;" vertex="1" parent="TG4V55NeWWXEX1vSNr2F-32">
          <mxGeometry x="30" width="220" height="30" as="geometry" />
        </mxCell>
        <mxCell id="TG4V55NeWWXEX1vSNr2F-35" value="" style="shape=partialRectangle;collapsible=0;dropTarget=0;pointerEvents=0;fillColor=none;points=[[0,0.5],[1,0.5]];portConstraint=eastwest;top=0;left=0;right=0;bottom=0;" vertex="1" parent="TG4V55NeWWXEX1vSNr2F-28">
          <mxGeometry y="90" width="250" height="30" as="geometry" />
        </mxCell>
        <mxCell id="TG4V55NeWWXEX1vSNr2F-36" value="" style="shape=partialRectangle;overflow=hidden;connectable=0;fillColor=none;top=0;left=0;bottom=0;right=0;" vertex="1" parent="TG4V55NeWWXEX1vSNr2F-35">
          <mxGeometry width="30" height="30" as="geometry" />
        </mxCell>
        <mxCell id="TG4V55NeWWXEX1vSNr2F-37" value="order_date date NOT NULL" style="shape=partialRectangle;overflow=hidden;connectable=0;fillColor=none;top=0;left=0;bottom=0;right=0;align=left;spacingLeft=6;" vertex="1" parent="TG4V55NeWWXEX1vSNr2F-35">
          <mxGeometry x="30" width="220" height="30" as="geometry" />
        </mxCell>
        <mxCell id="TG4V55NeWWXEX1vSNr2F-38" value="Coach" style="shape=table;startSize=30;container=1;collapsible=1;childLayout=tableLayout;fixedRows=1;rowLines=0;fontStyle=1;align=center;resizeLast=1;" vertex="1" parent="1">
          <mxGeometry x="360" y="50" width="250" height="130" as="geometry" />
        </mxCell>
        <mxCell id="TG4V55NeWWXEX1vSNr2F-39" value="" style="shape=partialRectangle;collapsible=0;dropTarget=0;pointerEvents=0;fillColor=none;points=[[0,0.5],[1,0.5]];portConstraint=eastwest;top=0;left=0;right=0;bottom=1;" vertex="1" parent="TG4V55NeWWXEX1vSNr2F-38">
          <mxGeometry y="30" width="250" height="30" as="geometry" />
        </mxCell>
        <mxCell id="TG4V55NeWWXEX1vSNr2F-40" value="PK" style="shape=partialRectangle;overflow=hidden;connectable=0;fillColor=none;top=0;left=0;bottom=0;right=0;fontStyle=1;" vertex="1" parent="TG4V55NeWWXEX1vSNr2F-39">
          <mxGeometry width="30" height="30" as="geometry" />
        </mxCell>
        <mxCell id="TG4V55NeWWXEX1vSNr2F-41" value="order_id int NOT NULL " style="shape=partialRectangle;overflow=hidden;connectable=0;fillColor=none;top=0;left=0;bottom=0;right=0;align=left;spacingLeft=6;fontStyle=5;" vertex="1" parent="TG4V55NeWWXEX1vSNr2F-39">
          <mxGeometry x="30" width="220" height="30" as="geometry" />
        </mxCell>
        <mxCell id="TG4V55NeWWXEX1vSNr2F-42" value="" style="shape=partialRectangle;collapsible=0;dropTarget=0;pointerEvents=0;fillColor=none;points=[[0,0.5],[1,0.5]];portConstraint=eastwest;top=0;left=0;right=0;bottom=0;" vertex="1" parent="TG4V55NeWWXEX1vSNr2F-38">
          <mxGeometry y="60" width="250" height="30" as="geometry" />
        </mxCell>
        <mxCell id="TG4V55NeWWXEX1vSNr2F-43" value="FK1" style="shape=partialRectangle;overflow=hidden;connectable=0;fillColor=none;top=0;left=0;bottom=0;right=0;" vertex="1" parent="TG4V55NeWWXEX1vSNr2F-42">
          <mxGeometry width="30" height="30" as="geometry" />
        </mxCell>
        <mxCell id="TG4V55NeWWXEX1vSNr2F-44" value="customer_id int NOT NULL" style="shape=partialRectangle;overflow=hidden;connectable=0;fillColor=none;top=0;left=0;bottom=0;right=0;align=left;spacingLeft=6;" vertex="1" parent="TG4V55NeWWXEX1vSNr2F-42">
          <mxGeometry x="30" width="220" height="30" as="geometry" />
        </mxCell>
        <mxCell id="TG4V55NeWWXEX1vSNr2F-45" value="" style="shape=partialRectangle;collapsible=0;dropTarget=0;pointerEvents=0;fillColor=none;points=[[0,0.5],[1,0.5]];portConstraint=eastwest;top=0;left=0;right=0;bottom=0;" vertex="1" parent="TG4V55NeWWXEX1vSNr2F-38">
          <mxGeometry y="90" width="250" height="30" as="geometry" />
        </mxCell>
        <mxCell id="TG4V55NeWWXEX1vSNr2F-46" value="" style="shape=partialRectangle;overflow=hidden;connectable=0;fillColor=none;top=0;left=0;bottom=0;right=0;" vertex="1" parent="TG4V55NeWWXEX1vSNr2F-45">
          <mxGeometry width="30" height="30" as="geometry" />
        </mxCell>
        <mxCell id="TG4V55NeWWXEX1vSNr2F-47" value="order_date date NOT NULL" style="shape=partialRectangle;overflow=hidden;connectable=0;fillColor=none;top=0;left=0;bottom=0;right=0;align=left;spacingLeft=6;" vertex="1" parent="TG4V55NeWWXEX1vSNr2F-45">
          <mxGeometry x="30" width="220" height="30" as="geometry" />
        </mxCell>
        <mxCell id="TG4V55NeWWXEX1vSNr2F-48" value="Events" style="shape=table;startSize=30;container=1;collapsible=1;childLayout=tableLayout;fixedRows=1;rowLines=0;fontStyle=1;align=center;resizeLast=1;" vertex="1" parent="1">
          <mxGeometry x="270" y="470" width="250" height="130" as="geometry" />
        </mxCell>
        <mxCell id="TG4V55NeWWXEX1vSNr2F-49" value="" style="shape=partialRectangle;collapsible=0;dropTarget=0;pointerEvents=0;fillColor=none;points=[[0,0.5],[1,0.5]];portConstraint=eastwest;top=0;left=0;right=0;bottom=1;" vertex="1" parent="TG4V55NeWWXEX1vSNr2F-48">
          <mxGeometry y="30" width="250" height="30" as="geometry" />
        </mxCell>
        <mxCell id="TG4V55NeWWXEX1vSNr2F-50" value="PK" style="shape=partialRectangle;overflow=hidden;connectable=0;fillColor=none;top=0;left=0;bottom=0;right=0;fontStyle=1;" vertex="1" parent="TG4V55NeWWXEX1vSNr2F-49">
          <mxGeometry width="30" height="30" as="geometry" />
        </mxCell>
        <mxCell id="TG4V55NeWWXEX1vSNr2F-51" value="order_id int NOT NULL " style="shape=partialRectangle;overflow=hidden;connectable=0;fillColor=none;top=0;left=0;bottom=0;right=0;align=left;spacingLeft=6;fontStyle=5;" vertex="1" parent="TG4V55NeWWXEX1vSNr2F-49">
          <mxGeometry x="30" width="220" height="30" as="geometry" />
        </mxCell>
        <mxCell id="TG4V55NeWWXEX1vSNr2F-52" value="" style="shape=partialRectangle;collapsible=0;dropTarget=0;pointerEvents=0;fillColor=none;points=[[0,0.5],[1,0.5]];portConstraint=eastwest;top=0;left=0;right=0;bottom=0;" vertex="1" parent="TG4V55NeWWXEX1vSNr2F-48">
          <mxGeometry y="60" width="250" height="30" as="geometry" />
        </mxCell>
        <mxCell id="TG4V55NeWWXEX1vSNr2F-53" value="FK1" style="shape=partialRectangle;overflow=hidden;connectable=0;fillColor=none;top=0;left=0;bottom=0;right=0;" vertex="1" parent="TG4V55NeWWXEX1vSNr2F-52">
          <mxGeometry width="30" height="30" as="geometry" />
        </mxCell>
        <mxCell id="TG4V55NeWWXEX1vSNr2F-54" value="customer_id int NOT NULL" style="shape=partialRectangle;overflow=hidden;connectable=0;fillColor=none;top=0;left=0;bottom=0;right=0;align=left;spacingLeft=6;" vertex="1" parent="TG4V55NeWWXEX1vSNr2F-52">
          <mxGeometry x="30" width="220" height="30" as="geometry" />
        </mxCell>
        <mxCell id="TG4V55NeWWXEX1vSNr2F-55" value="" style="shape=partialRectangle;collapsible=0;dropTarget=0;pointerEvents=0;fillColor=none;points=[[0,0.5],[1,0.5]];portConstraint=eastwest;top=0;left=0;right=0;bottom=0;" vertex="1" parent="TG4V55NeWWXEX1vSNr2F-48">
          <mxGeometry y="90" width="250" height="30" as="geometry" />
        </mxCell>
        <mxCell id="TG4V55NeWWXEX1vSNr2F-56" value="" style="shape=partialRectangle;overflow=hidden;connectable=0;fillColor=none;top=0;left=0;bottom=0;right=0;" vertex="1" parent="TG4V55NeWWXEX1vSNr2F-55">
          <mxGeometry width="30" height="30" as="geometry" />
        </mxCell>
        <mxCell id="TG4V55NeWWXEX1vSNr2F-57" value="order_date date NOT NULL" style="shape=partialRectangle;overflow=hidden;connectable=0;fillColor=none;top=0;left=0;bottom=0;right=0;align=left;spacingLeft=6;" vertex="1" parent="TG4V55NeWWXEX1vSNr2F-55">
          <mxGeometry x="30" width="220" height="30" as="geometry" />
        </mxCell>
      </root>
    </mxGraphModel>
  </diagram>
</mxfile>
